<svg xmlns="http://www.w3.org/2000/svg" version="1.1" xmlns:xlink="http://www.w3.org/1999/xlink" xmlns:svgjs="http://svgjs.dev/svgjs" width="1500" height="1500" viewBox="0 0 1500 1500"><rect width="1500" height="1500" fill="#ffffff"></rect><g transform="matrix(0.6666666666666666,0,0,0.6666666666666666,249.39393939393938,630.3122516529262)"><svg viewBox="0 0 396 94" data-background-color="#ffffff" preserveAspectRatio="xMidYMid meet" height="356" width="1500" xmlns="http://www.w3.org/2000/svg" xmlns:xlink="http://www.w3.org/1999/xlink"><g id="tight-bounds" transform="matrix(1,0,0,1,0.2400000000000091,0.4044171824084799)"><svg viewBox="0 0 395.52 93.30218133452128" height="93.30218133452128" width="395.52"><g><svg viewBox="0 0 437.4616737339759 103.19611754053045" height="93.30218133452128" width="395.52"><g transform="matrix(1,0,0,1,41.941673733975854,27.035040466193504)"><svg viewBox="0 0 395.52000000000004 49.126036608143444" height="49.126036608143444" width="395.52000000000004"><g id="textblocktransform"><svg viewBox="0 0 395.52000000000004 49.126036608143444" height="49.126036608143444" width="395.52000000000004" id="textblock"><g><svg viewBox="0 0 395.52000000000004 49.126036608143444" height="49.126036608143444" width="395.52000000000004"><g transform="matrix(1,0,0,1,0,0)"><svg width="395.52000000000004" viewBox="2.95 -42.75 392.01 48.71" height="49.126036608143444" data-palette-color="#e00419"><g class="wordmark-text-0" data-fill-palette-color="primary" id="text-0"><path d="M34.91-7.2L37.45-3.39Q31.15 2.05 22.49 2.05L22.49 2.05Q13.53 2.05 7.79-4.44L7.79-4.44Q2.95-9.94 2.95-18.9L2.95-18.9Q2.95-26.27 6.64-31.76L6.64-31.76Q7.86-33.59 9.4-35.03L9.4-35.03Q14.79-40.04 22.19-40.04L22.19-40.04Q26.78-40.04 30.52-38.43L30.52-38.43Q33.45-37.16 36.55-34.4L36.55-34.4 33.72-31.05Q30.81-34.03 27.78-35.08L27.78-35.08Q25.39-35.94 22.44-35.94L22.44-35.94Q15.94-35.94 12.06-31.23L12.06-31.23Q7.96-26.27 7.96-18.82L7.96-18.82Q7.96-12.45 11.16-8.01L11.16-8.01Q13.06-5.37 15.97-3.78L15.97-3.78Q19.04-2.1 22.44-2.1L22.44-2.1Q29.79-2.1 34.91-7.2L34.91-7.2ZM45.48-2.91L45.48-41.5 50.07-41.5 50.07-3.44Q50.07-2.49 50.97-2.49L50.97-2.49 54.88-2.49 54.37 1.25 49.73 1.25Q45.48 1.25 45.48-2.91L45.48-2.91ZM87.18-14.31L87.18-13.01 64.45-13.01Q64.55-8.37 66.62-5.62L66.62-5.62Q69.43-1.88 74.78-1.88L74.78-1.88Q80.41-1.88 84.25-6.76L84.25-6.76 87.08-3.76Q82.22 2.08 74.56 2.08L74.56 2.08Q66.91 2.08 62.81-3.13L62.81-3.13Q59.64-7.15 59.64-13.23L59.64-13.23Q59.64-18.46 61.93-22.34L61.93-22.34Q64.18-26.1 68.04-27.83L68.04-27.83Q70.72-29.05 73.75-29.05L73.75-29.05Q80.78-29.05 84.57-23.44L84.57-23.44Q87.18-19.56 87.18-14.31L87.18-14.31ZM64.64-16.5L82.39-16.5Q82.1-20.12 80.1-22.41L80.1-22.41Q77.61-25.29 73.65-25.29L73.65-25.29Q70.77-25.29 68.4-23.46L68.4-23.46Q65.28-21.07 64.64-16.5L64.64-16.5ZM103.65 1.76L91.55-28.25 96.7-28.25 103.24-10.45 103.48-9.81Q104.8-6.18 105.39-4L105.39-4 105.58-4Q106.12-6.03 107.56-9.99L107.56-9.99 107.76-10.45 114.3-28.25 119.45-28.25 107.34 1.76 103.65 1.76ZM150.67-14.31L150.67-13.01 127.94-13.01Q128.04-8.37 130.12-5.62L130.12-5.62Q132.92-1.88 138.27-1.88L138.27-1.88Q143.91-1.88 147.74-6.76L147.74-6.76 150.58-3.76Q145.72 2.08 138.05 2.08L138.05 2.08Q130.41 2.08 126.31-3.13L126.31-3.13Q123.13-7.15 123.13-13.23L123.13-13.23Q123.13-18.46 125.43-22.34L125.43-22.34Q127.68-26.1 131.53-27.83L131.53-27.83Q134.22-29.05 137.25-29.05L137.25-29.05Q144.28-29.05 148.06-23.44L148.06-23.44Q150.67-19.56 150.67-14.31L150.67-14.31ZM128.14-16.5L145.89-16.5Q145.6-20.12 143.59-22.41L143.59-22.41Q141.1-25.29 137.15-25.29L137.15-25.29Q134.27-25.29 131.9-23.46L131.9-23.46Q128.77-21.07 128.14-16.5L128.14-16.5ZM163.59-28.25L163.34-20.09 163.54-20.09Q166.64-28.96 173.13-28.96L173.13-28.96Q175.16-28.96 176.89-28.15L176.89-28.15 175.48-23.95Q174.21-24.51 172.5-24.51L172.5-24.51Q166.3-24.51 163.78-14.16L163.78-14.16 163.78 1.25 159.19 1.25 159.19-28.25 163.59-28.25Z" fill="#e00419" data-fill-palette-color="primary"></path><path d="M194.17 1.25L210.21-39.45 214.92-39.45 230.96 1.25 225.86 1.25 221.32-10.69 203.82-10.69 199.28 1.25 194.17 1.25ZM205.18-14.55L219.98-14.55 215.73-25.76Q213.41-31.71 212.68-34.74L212.68-34.74 212.48-34.74Q211.75-31.88 209.43-25.76L209.43-25.76 205.18-14.55ZM237.04-2.91L237.04-41.5 241.63-41.5 241.63-3.44Q241.63-2.49 242.53-2.49L242.53-2.49 246.44-2.49 245.93 1.25 241.29 1.25Q237.04 1.25 237.04-2.91L237.04-2.91ZM253.3-34.55L253.3-39.99 258.79-39.99 258.79-34.55 253.3-34.55ZM253.74 1.25L253.74-28.25 258.33-28.25 258.33 1.25 253.74 1.25ZM289.55-28.25L293.09-28.25 293.09-6.69Q293.09-0.46 289.94 2.66L289.94 2.66Q286.62 5.96 280.3 5.96L280.3 5.96Q273.1 5.96 268.14 2.15L268.14 2.15 270.36-1.15Q274.29 2.15 280.32 2.15L280.32 2.15Q285.42 2.15 287.48-1.27L287.48-1.27Q288.6-3.13 288.6-5.76L288.6-5.76 288.6-9.11Q287.3-7.4 285.18-6.37L285.18-6.37Q282.62-5.15 280.01-5.15L280.01-5.15Q275.88-5.15 272.58-7.3L272.58-7.3Q267.31-10.69 267.31-17.04L267.31-17.04Q267.31-22.66 271.85-26.2L271.85-26.2Q275.44-28.96 280.08-28.96L280.08-28.96Q285.18-28.96 288.79-25.66L288.79-25.66 289.55-28.25ZM288.6-13.75L288.6-20.7Q285.89-25.15 280.4-25.15L280.4-25.15Q277.78-25.15 275.78-23.93L275.78-23.93Q272.07-21.68 272.07-17.07L272.07-17.07Q272.07-14.04 273.97-11.79L273.97-11.79Q276.34-8.96 280.32-8.96L280.32-8.96Q284.47-8.96 287.23-11.87L287.23-11.87Q287.99-12.65 288.6-13.75L288.6-13.75ZM302.34-28.25L306.78-28.25 306.78-22.95Q309.03-25.88 311.96-27.39L311.96-27.39Q314.67-28.81 317.45-28.81L317.45-28.81Q321.12-28.81 323.73-27L323.73-27Q327.68-24.24 327.68-17.41L327.68-17.41 327.68 1.25 323.14 1.25 323.14-16.85Q323.14-24.85 316.87-24.85L316.87-24.85Q314.45-24.85 312.18-23.49L312.18-23.49Q308.76-21.48 306.93-17.5L306.93-17.5 306.93 1.25 302.34 1.25 302.34-28.25ZM337.03-20.7L337.03-27.25 343.53-27.25 343.53-20.7 337.03-20.7ZM337.03 1.25L337.03-5.3 343.53-5.3 343.53 1.25 337.03 1.25ZM355.19 4.76L351.53 4.76Q354.8 1 356.8-2.2L356.8-2.2Q361.88-10.28 361.88-18.97L361.88-18.97Q361.88-27.27 357.34-34.94L357.34-34.94Q355.22-38.5 351.53-42.75L351.53-42.75 355.19-42.75Q359.66-38.7 362.52-32.91L362.52-32.91Q366.03-25.76 366.03-18.99L366.03-18.99Q366.03-11.3 361.59-3.34L361.59-3.34Q358.93 1.46 355.19 4.76L355.19 4.76ZM381.66-28.25L381.41-20.09 381.61-20.09Q384.71-28.96 391.2-28.96L391.2-28.96Q393.23-28.96 394.96-28.15L394.96-28.15 393.54-23.95Q392.28-24.51 390.57-24.51L390.57-24.51Q384.37-24.51 381.85-14.16L381.85-14.16 381.85 1.25 377.26 1.25 377.26-28.25 381.66-28.25Z" fill="#e09f05" data-fill-palette-color="secondary"></path></g></svg></g></svg></g></svg></g></svg></g><g><svg viewBox="0 0 30.34419551567178 103.19611754053045" height="103.19611754053045" width="30.34419551567178"><g><svg xmlns="http://www.w3.org/2000/svg" data-name="Слой 1" viewBox="39.11 12.98659668578551 21.76337330748715 74.01401130433514" x="0" y="0" height="103.19611754053045" width="30.34419551567178" class="icon-icon-0" data-fill-palette-color="accent" id="icon-0"><path d="M39.11 51.467A18 18 0 0 1 41.442 50.311C44.407 49.338 45.391 46.957 45.682 44.217A29.3 29.3 0 0 0 45.1 35.686 25.53 25.53 0 0 1 46.05 21.919 13.87 13.87 0 0 1 52.859 14.561C53.884 13.994 54.993 13.579 56.07 13.11A0.88 0.88 0 0 1 57.345 13.562C57.913 14.952 58.722 16.268 58.575 17.882A1.49 1.49 0 0 1 57.627 19.276 11 11 0 0 0 52.45 24.086 5.75 5.75 0 0 0 51.58 27.266 9.6 9.6 0 0 1 51.316 29.766 12.4 12.4 0 0 0 51 33C51.11 33.89 51.138 34.467 51.22 35.281 51.393 37.005 50.81 38.315 50.935 39.856A18.3 18.3 0 0 1 50.802 44.373 36.4 36.4 0 0 1 49.28 50.205 4.06 4.06 0 0 0 49.145 53.107 15.9 15.9 0 0 1 49.58 62.055 30 30 0 0 0 49.192 69.758 15.24 15.24 0 0 0 50.906 76.335C51.89 78.245 53.574 79.153 55.374 79.942A12.6 12.6 0 0 0 57.814 80.552 4.004 4.004 0 0 1 60.18 86.695C59.123 86.794 58.13 86.891 57.134 86.975A1.5 1.5 0 0 1 56.487 86.954C54.314 86.075 52.131 85.218 49.991 84.263A5.1 5.1 0 0 1 48.107 82.895C45.245 79.29 43.487 75.393 43.731 70.54 43.944 66.311 44.814 62.192 45.171 57.996A4.88 4.88 0 0 0 41.432 52.77C40.651 52.59 39.722 52.66 39.111 51.467M45.33 75.385A5.8 5.8 0 0 0 47.177 79.307 50 50 0 0 0 55.134 84.942 5.64 5.64 0 0 0 59.285 85.524zM49.608 39.549C50.048 38.23 50.343 36.936 49.853 35.969A9.43 9.43 0 0 0 46.018 31.832C45.195 35.366 47.686 37.198 49.608 39.55M46.162 27.046C45.446 29.379 45.591 29.88 47.067 31.3 47.789 31.995 48.418 32.787 49.104 33.522 49.351 33.786 49.64 34.012 50.185 34.503A8 8 0 0 0 50.143 31.913 11.6 11.6 0 0 0 46.163 27.045M49.967 29.673C50.893 27.108 49.7 24.52 46.92 23.137A10 10 0 0 0 46.28 24.851 1.57 1.57 0 0 0 46.525 26.036C47.627 27.285 48.808 28.464 49.967 29.673M48.525 55.637C48.005 53.203 47.383 50.844 45.445 48.924L43.565 50.694A29.4 29.4 0 0 0 48.525 55.638M50.2 78.07A15.4 15.4 0 0 0 44.94 70.668C44.76 72.004 44.38 73.167 45.344 74.032 46.91 75.438 48.576 76.73 50.2 78.071M48.583 19.828C47.781 20.474 47.31 21.048 47.641 21.726A15.3 15.3 0 0 0 50.545 25.51C50.891 24.417 51.739 23.648 50.991 22.675 50.256 21.717 49.434 20.826 48.583 19.828M47.008 37.825C46.093 40.705 48.019 41.998 49.489 43.691 50.861 40.731 48.396 39.65 47.008 37.825M45.938 62.392C44.941 64.891 45.435 66.233 47.733 67.536 48.356 65.033 48.26 64.748 45.938 62.392M45.418 67.03L44.98 67.138A6 6 0 0 0 45.31 69.494 19 19 0 0 0 47.79 72.21C48.595 69.583 47.047 68.287 45.417 67.03M51.853 22.4C52.839 21.765 52.873 21.096 52.268 20.355 51.668 19.621 51.048 18.901 50.42 18.19 50.323 18.08 50.133 18.052 49.894 17.945L49.091 18.975zM46.292 58.44C45.826 61.033 46.243 61.943 48.207 63.053 49.435 60.838 47.62 59.881 46.292 58.44M46.53 46.107C46.113 46.85 45.612 47.49 46.016 48.209A27 27 0 0 0 47.738 50.641C49.119 48.746 49.097 48.66 46.53 46.107M46.01 54.645C45.962 56.883 47.248 58.313 48.745 59.785 49.061 57.897 49.082 57.664 48.538 57.094 47.737 56.255 46.874 55.475 46.01 54.645M53.425 20.589C54.397 20.247 54.678 19.714 54.138 18.907A34 34 0 0 0 52.75 17.02C52.407 16.576 51.96 16.337 51.463 16.757 50.918 17.216 51.28 17.646 51.585 18.061 52.177 18.867 52.763 19.678 53.425 20.589M49.064 47.32C49.699 44.982 49.285 44.113 47.058 42.794 46.546 44.767 47.563 46.046 49.065 47.32M54.679 81.18C58.1 83.893 58.104 83.895 59.498 84.07 59.288 82.392 58.215 81.72 54.678 81.18M54.081 15.314C53.489 15.498 53.07 15.706 53.41 16.283 53.962 17.225 54.562 18.14 55.117 19.026 55.964 18.838 56.309 18.48 55.877 17.823 55.307 16.953 54.67 16.129 54.081 15.313M56.985 17.812C57.423 16.773 57.02 14.906 56.337 14.642 56.05 14.53 55.654 14.71 54.95 14.805ZM43.095 52.207C42.398 50.937 42.398 50.937 41.75 51.709ZM49.167 81.944L48.955 82.24 50.83 83.618 51.063 83.292Z" fill="#de0c36" data-fill-palette-color="accent"></path></svg></g></svg></g></svg></g><defs></defs></svg><rect width="395.52" height="93.30218133452128" fill="none" stroke="none" visibility="hidden"></rect></g></svg></g></svg>